<svg width="65" height="26" viewBox="0 0 65 26" fill="none" xmlns="http://www.w3.org/2000/svg">
<path d="M65 13.0311C65 12.6582 64.979 12.2853 64.9581 11.9331C64.9371 11.5809 64.8742 11.208 64.8323 10.8558H59.7371H54.6419L53.0903 13.259L51.5387 15.6622H59.4016C58.9403 17.2367 58.0387 18.5833 56.8226 19.5363C55.6064 20.4892 54.0758 21.0693 52.2935 21.0693C50.071 21.0693 48.1 20.1578 46.6532 18.6868C45.2065 17.2159 44.3258 15.2064 44.3258 12.9896C44.3258 10.8143 45.2065 8.8255 46.6742 7.3753C48.121 5.9251 50.1339 5.01354 52.3565 5.01354C53.321 5.01354 54.2226 5.15856 55.0613 5.4486C55.9 5.71793 56.6548 6.13227 57.3258 6.62948L58.6887 4.4749L60.0516 2.32031C59.0032 1.59522 57.829 1.01514 56.529 0.642232C55.25 0.248607 53.8452 0.0621489 52.3774 0.0621489C50.4064 0.0621489 48.6242 0.414344 47.0516 1.05658C45.479 1.69881 44.0742 2.63107 42.9 3.79123C40.1113 6.54661 39.3145 9.34342 38.7694 11.8916C38.2032 14.4606 37.8887 16.8016 35.9806 18.6661C35.1839 19.4534 34.3242 20.0542 33.3597 20.4478C32.3952 20.8414 31.3677 21.0486 30.2565 21.0486C27.971 21.0486 25.9161 20.1163 24.4065 18.6454C22.9177 17.1745 21.9952 15.1649 21.9952 12.9896C21.9952 10.8558 22.9177 8.86693 24.4065 7.39601C25.8952 5.9251 27.95 4.99283 30.2565 4.97211C31.221 4.99283 32.1016 5.13785 32.9194 5.38645C33.7371 5.63506 34.4919 6.02869 35.1629 6.5259L36.5468 4.37132L37.9306 2.21673C36.8823 1.49163 35.7081 0.932267 34.429 0.559359C33.15 0.18645 31.7452 0 30.2774 0C28.0129 0 25.8952 0.538642 24.05 1.49163C22.2048 2.44462 20.6323 3.79124 19.4371 5.40717C18.9758 3.97769 18.0113 2.75537 16.6903 1.90597C15.3694 1.03585 13.6919 0.538647 11.8048 0.538647H5.89193H0V13.0311V25.4821H13C14.6355 25.4821 16.1032 25.0884 17.3194 24.4255C18.5355 23.7625 19.5 22.8096 20.171 21.6908C21.3871 23.0167 22.8548 24.094 24.5323 24.8398C26.2097 25.5857 28.0758 26 30.0887 26C32.4371 26 34.5968 25.4614 36.4629 24.4876C38.329 23.5139 39.9016 22.1259 41.1177 20.4064C42.271 22.1052 43.8435 23.4932 45.7306 24.4669C47.5968 25.4406 49.7984 26 52.1468 26C55.7742 26 58.9823 24.5498 61.2887 22.188C63.5952 19.8677 65 16.6151 65 13.0311ZM5.47258 10.6486V5.2H11.7C12.4968 5.2 13.1887 5.49004 13.6919 5.96653C14.1952 6.44303 14.5097 7.12669 14.5097 7.91394C14.5097 8.70119 14.1952 9.38486 13.6919 9.86136C13.1887 10.3586 12.4758 10.6486 11.7 10.6486H8.59677H5.47258ZM5.47258 20.8621V15.2064H12.9371C13.7758 15.2064 14.5097 15.5171 15.0548 16.0143C15.6 16.5116 15.9355 17.2159 15.9355 18.0239C15.9355 18.8319 15.6 19.5363 15.0548 20.0542C14.5097 20.5721 13.7758 20.8829 12.9371 20.8829H9.20484H5.47258V20.8621Z" fill="#39795A"/>
</svg>
