<svg width="42" height="19" viewBox="0 0 42 19" fill="none" xmlns="http://www.w3.org/2000/svg">
<path d="M8.89018 0C11.1779 0 12.5815 0.66443 13.9073 2.01969C14.1934 2.31213 14.4013 2.28539 14.6612 2.01969C15.987 0.66443 17.8327 0 20.5363 0C23.37 0 25.2156 0.66443 26.5414 2.01969C26.8014 2.28539 27.0355 2.28539 27.2954 2.01969C28.6212 0.66443 30.1549 0 32.4426 0C37.7196 0 41.3073 3.85321 41.3073 9.40692C41.3073 11.7718 40.6315 13.8447 39.4617 15.4392C39.4097 15.5191 39.4097 15.6518 39.4878 15.7317L41.9053 18.256C42.1133 18.4953 41.9573 18.8937 41.6454 18.8937H32.9584C30.3588 18.9205 28.823 18.3356 27.4972 16.9803C27.2631 16.741 26.9774 16.7146 26.7174 16.9803C25.3916 18.3356 23.6 19 20.8706 19C18.0111 19 16.1175 18.3356 14.7917 16.9803C14.5318 16.7146 14.2977 16.6879 14.0378 16.9803C12.7901 18.3356 11.1001 19 8.89052 19C3.61349 19 2.39594e-08 15.1204 2.39594e-08 9.4868C-0.00033975 3.85321 3.61315 0 8.89018 0ZM5.92158 15.6785H12.2906C12.7847 15.6785 13.1744 15.2534 13.1744 14.7752L13.1798 12.5165C13.1798 12.3039 13.3619 12.1178 13.5699 12.1178H15.8576C16.0655 12.1178 16.2476 12.3039 16.2476 12.5165V14.7752C16.2476 15.2802 16.6635 15.6785 17.1576 15.6785H24.2024C24.7223 15.6785 25.1123 15.5723 25.1123 14.9078V13.4199C25.1123 12.7023 24.9044 12.3571 24.2286 12.1709L17.6516 10.3107C14.5841 9.43366 13.1543 7.25455 13.1543 4.83648V4.17205C13.1543 3.6139 12.7904 3.24192 12.2964 3.24192H5.92667C4.60088 3.24192 3.56117 4.30473 3.56117 5.65999L3.55573 13.2865C3.55573 14.6154 4.6216 15.6785 5.92158 15.6785ZM35.6443 15.6785L32.5986 12.5429C32.4165 12.3567 32.4426 12.1709 32.6244 11.9848L33.9764 10.5764C34.1585 10.3902 34.3664 10.4433 34.5224 10.6028L36.966 13.1271C37.2521 13.4195 37.7458 13.2334 37.7458 12.8083V5.63359C37.7458 4.30508 36.6799 3.24192 35.3803 3.24192H28.8811C28.3871 3.24192 27.9712 3.64065 27.9712 4.14531V6.35082C27.9712 6.56338 27.7891 6.74954 27.5811 6.74954H25.2676C25.0597 6.74954 24.8776 6.56338 24.8776 6.35082V4.22485C24.8776 3.6667 24.4617 3.24157 23.9157 3.24157H17.1049C16.6109 3.24157 16.2211 3.61356 16.2211 4.11857V5.71313C16.2211 6.35082 16.5072 6.6964 17.0271 6.85582L23.37 8.68935C26.7494 9.67262 28.2573 11.7187 28.2573 14.3229V14.7748C28.2573 15.3594 28.6225 15.6782 29.1944 15.6782H35.6443V15.6785Z" fill="black"/>
</svg>
